<?xml version="1.0" encoding="UTF-8"?>
<svg id="Ebene_1" xmlns="http://www.w3.org/2000/svg" version="1.1" viewBox="0 0 30 30">
  <!-- Generator: Adobe Illustrator 29.2.0, SVG Export Plug-In . SVG Version: 2.1.0 Build 108)  -->
  <defs>
    <style>
      .st0 {
        fill: none;
        stroke: #1d1d1b;
        stroke-linecap: round;
        stroke-miterlimit: 10;
        stroke-width: 4px;
      }

      .st1 {
        fill: #fff;
      }

      .st2 {
        fill: #8ac11f;
      }
    </style>
  </defs>
  <polyline class="st0" points="70.46 7.09 57.47 23.32 50.82 18.83"/>
  <circle class="st2" cx="56.95" cy="15" r="15"/>
  <g>
    <path d="M25.11,28.11c-.8,0-1.55-.31-2.12-.88l-7.99-7.99-7.99,7.99c-.57.57-1.32.88-2.12.88s-1.56-.31-2.12-.88c-1.17-1.17-1.17-3.07,0-4.24l7.99-7.99L2.77,7.01c-.57-.57-.88-1.32-.88-2.12s.31-1.55.88-2.12,1.32-.88,2.12-.88,1.56.31,2.12.88l7.99,7.99,7.99-7.99c.57-.57,1.32-.88,2.12-.88s1.55.31,2.12.88c.57.57.88,1.32.88,2.12s-.31,1.55-.88,2.12l-7.99,7.99,7.99,7.99c1.17,1.17,1.17,3.07,0,4.24-.57.57-1.32.88-2.12.88Z"/>
    <path class="st1" d="M25.11,2.89c.51,0,1.02.2,1.41.59.78.78.78,2.05,0,2.83l-8.7,8.7,8.7,8.7c.78.78.78,2.05,0,2.83-.39.39-.9.59-1.41.59s-1.02-.2-1.41-.59l-8.7-8.7-8.7,8.7c-.39.39-.9.59-1.41.59s-1.02-.2-1.41-.59c-.78-.78-.78-2.05,0-2.83l8.7-8.7L3.47,6.3c-.78-.78-.78-2.05,0-2.83.39-.39.9-.59,1.41-.59s1.02.2,1.41.59l8.7,8.7L23.7,3.47c.39-.39.9-.59,1.41-.59M25.11.89c-1.07,0-2.07.42-2.83,1.17l-7.28,7.28L7.72,2.06c-.75-.76-1.76-1.17-2.83-1.17s-2.07.42-2.83,1.17c-.75.75-1.17,1.76-1.17,2.83s.42,2.07,1.17,2.83l7.28,7.28-7.28,7.28c-1.56,1.56-1.56,4.1,0,5.66.75.76,1.76,1.17,2.83,1.17s2.07-.42,2.83-1.17l7.28-7.28,7.28,7.28c.76.76,1.76,1.17,2.83,1.17s2.07-.42,2.83-1.17c1.56-1.56,1.56-4.1,0-5.66l-7.28-7.28,7.28-7.28c.76-.75,1.17-1.76,1.17-2.83s-.42-2.07-1.17-2.83c-.76-.76-1.76-1.17-2.83-1.17h0Z"/>
  </g>
</svg>