<svg xmlns="http://www.w3.org/2000/svg" id="Ebene_1" version="1.1" viewBox="0 0 30 30"><path d="M70.46 7.09 57.47 23.32l-6.65-4.49" style="fill:none;stroke:#1d1d1b;stroke-linecap:round;stroke-miterlimit:10;stroke-width:4px"/><circle cx="56.95" cy="15" r="15" style="fill:#8ac11f"/><path d="M25.11 28.11c-.8 0-1.55-.31-2.12-.88L15 19.24l-7.99 7.99c-.57.57-1.32.88-2.12.88s-1.56-.31-2.12-.88a3 3 0 0 1 0-4.24L10.76 15 2.77 7.01c-.57-.57-.88-1.32-.88-2.12s.31-1.55.88-2.12 1.32-.88 2.12-.88 1.56.31 2.12.88L15 10.76l7.99-7.99c.57-.57 1.32-.88 2.12-.88s1.55.31 2.12.88.88 1.32.88 2.12-.31 1.55-.88 2.12L19.24 15l7.99 7.99a3 3 0 0 1-2.12 5.12"/><path d="M25.11 2.89a2.004 2.004 0 0 1 1.41 3.42l-8.7 8.7 8.7 8.7a2.004 2.004 0 0 1-1.41 3.42c-.51 0-1.02-.2-1.41-.59l-8.7-8.7-8.7 8.7c-.39.39-.9.59-1.41.59s-1.02-.2-1.41-.59c-.78-.78-.78-2.05 0-2.83l8.7-8.7L3.47 6.3a2.004 2.004 0 0 1 1.41-3.42c.51 0 1.02.2 1.41.59l8.7 8.7 8.71-8.7c.39-.39.9-.59 1.41-.59m0-1.99c-1.07 0-2.07.42-2.83 1.17L15 9.34 7.72 2.06C6.97 1.3 5.96.89 4.89.89s-2.07.42-2.83 1.17C1.31 2.81.89 3.82.89 4.89s.42 2.07 1.17 2.83L9.34 15l-7.28 7.28a4.01 4.01 0 0 0 0 5.66c.75.76 1.76 1.17 2.83 1.17s2.07-.42 2.83-1.17L15 20.66l7.28 7.28c.76.76 1.76 1.17 2.83 1.17s2.07-.42 2.83-1.17a4.01 4.01 0 0 0 0-5.66L20.66 15l7.28-7.28c.76-.75 1.17-1.76 1.17-2.83s-.42-2.07-1.17-2.83A3.96 3.96 0 0 0 25.11.89" style="fill:#fff"/></svg>